<mxfile host="65bd71144e">
    <diagram id="xRZ9BMmsLgcD70vBNWqL" name="Page-1">
        <mxGraphModel dx="898" dy="529" grid="1" gridSize="10" guides="1" tooltips="1" connect="1" arrows="1" fold="1" page="1" pageScale="1" pageWidth="827" pageHeight="1169" math="0" shadow="0">
            <root>
                <mxCell id="0"/>
                <mxCell id="1" parent="0"/>
                <mxCell id="4" value=":Client" style="shape=umlLifeline;perimeter=lifelinePerimeter;whiteSpace=wrap;html=1;container=1;collapsible=0;recursiveResize=0;outlineConnect=0;" parent="1" vertex="1">
                    <mxGeometry x="50" y="100" width="100" height="490" as="geometry"/>
                </mxCell>
                <mxCell id="10" value="" style="html=1;verticalAlign=bottom;endArrow=block;" parent="4" edge="1">
                    <mxGeometry width="80" relative="1" as="geometry">
                        <mxPoint x="-30" y="70" as="sourcePoint"/>
                        <mxPoint x="50" y="70" as="targetPoint"/>
                    </mxGeometry>
                </mxCell>
                <mxCell id="5" value=":InGameController" style="shape=umlLifeline;perimeter=lifelinePerimeter;whiteSpace=wrap;html=1;container=1;collapsible=0;recursiveResize=0;outlineConnect=0;" parent="1" vertex="1">
                    <mxGeometry x="290" y="100" width="110" height="490" as="geometry"/>
                </mxCell>
                <mxCell id="6" value=":Game" style="shape=umlLifeline;perimeter=lifelinePerimeter;whiteSpace=wrap;html=1;container=1;collapsible=0;recursiveResize=0;outlineConnect=0;" parent="1" vertex="1">
                    <mxGeometry x="430" y="100" width="100" height="490" as="geometry"/>
                </mxCell>
                <mxCell id="7" value=":View" style="shape=umlLifeline;perimeter=lifelinePerimeter;whiteSpace=wrap;html=1;container=1;collapsible=0;recursiveResize=0;outlineConnect=0;" parent="1" vertex="1">
                    <mxGeometry x="170" y="100" width="100" height="490" as="geometry"/>
                </mxCell>
                <mxCell id="8" value=":Square" style="shape=umlLifeline;perimeter=lifelinePerimeter;whiteSpace=wrap;html=1;container=1;collapsible=0;recursiveResize=0;outlineConnect=0;" parent="1" vertex="1">
                    <mxGeometry x="550" y="100" width="100" height="490" as="geometry"/>
                </mxCell>
                <mxCell id="9" value="doTurn" style="html=1;verticalAlign=bottom;endArrow=block;" parent="1" edge="1">
                    <mxGeometry width="80" relative="1" as="geometry">
                        <mxPoint x="97.5" y="200" as="sourcePoint"/>
                        <mxPoint x="342.5" y="200" as="targetPoint"/>
                        <Array as="points">
                            <mxPoint x="247.5" y="200"/>
                        </Array>
                    </mxGeometry>
                </mxCell>
                <mxCell id="15" value="rollDice" style="html=1;verticalAlign=bottom;endArrow=block;" parent="1" edge="1">
                    <mxGeometry width="80" relative="1" as="geometry">
                        <mxPoint x="97.5" y="300" as="sourcePoint"/>
                        <mxPoint x="342.5" y="300" as="targetPoint"/>
                        <Array as="points">
                            <mxPoint x="247.5" y="300"/>
                        </Array>
                    </mxGeometry>
                </mxCell>
                <mxCell id="16" value="move(n)" style="html=1;verticalAlign=bottom;endArrow=block;" parent="1" source="5" target="6" edge="1">
                    <mxGeometry width="80" relative="1" as="geometry">
                        <mxPoint x="350" y="270" as="sourcePoint"/>
                        <mxPoint x="480" y="270" as="targetPoint"/>
                        <Array as="points">
                            <mxPoint x="410" y="330"/>
                            <mxPoint x="460" y="330"/>
                        </Array>
                    </mxGeometry>
                </mxCell>
                <mxCell id="18" value="onEnter" style="html=1;verticalAlign=bottom;endArrow=block;" parent="1" source="5" target="8" edge="1">
                    <mxGeometry width="80" relative="1" as="geometry">
                        <mxPoint x="340" y="350" as="sourcePoint"/>
                        <mxPoint x="420" y="350" as="targetPoint"/>
                        <Array as="points">
                            <mxPoint x="400" y="400"/>
                            <mxPoint x="530" y="400"/>
                        </Array>
                    </mxGeometry>
                </mxCell>
                <mxCell id="24" value="genView" style="html=1;verticalAlign=bottom;endArrow=block;" parent="1" source="4" target="7" edge="1">
                    <mxGeometry width="80" relative="1" as="geometry">
                        <mxPoint x="300" y="490" as="sourcePoint"/>
                        <mxPoint x="380" y="490" as="targetPoint"/>
                        <Array as="points">
                            <mxPoint x="150" y="460"/>
                            <mxPoint x="180" y="460"/>
                        </Array>
                    </mxGeometry>
                </mxCell>
                <mxCell id="32" value="view" style="html=1;verticalAlign=bottom;endArrow=open;dashed=1;endSize=8;" parent="1" source="7" target="4" edge="1">
                    <mxGeometry relative="1" as="geometry">
                        <mxPoint x="220" y="580" as="sourcePoint"/>
                        <mxPoint x="260" y="540" as="targetPoint"/>
                        <Array as="points">
                            <mxPoint x="200" y="550"/>
                            <mxPoint x="180" y="550"/>
                            <mxPoint x="120" y="550"/>
                        </Array>
                    </mxGeometry>
                </mxCell>
                <mxCell id="34" value="curentTurn" style="html=1;verticalAlign=bottom;endArrow=block;" parent="1" source="5" target="6" edge="1">
                    <mxGeometry width="80" relative="1" as="geometry">
                        <mxPoint x="350" y="220" as="sourcePoint"/>
                        <mxPoint x="430" y="220" as="targetPoint"/>
                        <Array as="points">
                            <mxPoint x="420" y="220"/>
                        </Array>
                    </mxGeometry>
                </mxCell>
                <mxCell id="35" value="return" style="html=1;verticalAlign=bottom;endArrow=open;dashed=1;endSize=8;" parent="1" source="6" target="5" edge="1">
                    <mxGeometry relative="1" as="geometry">
                        <mxPoint x="430" y="240" as="sourcePoint"/>
                        <mxPoint x="350" y="240" as="targetPoint"/>
                        <Array as="points">
                            <mxPoint x="420" y="240"/>
                        </Array>
                    </mxGeometry>
                </mxCell>
                <mxCell id="36" value="turnAction" style="html=1;verticalAlign=bottom;endArrow=open;dashed=1;endSize=8;" parent="1" source="5" target="4" edge="1">
                    <mxGeometry relative="1" as="geometry">
                        <mxPoint x="350" y="260" as="sourcePoint"/>
                        <mxPoint x="110" y="270" as="targetPoint"/>
                        <Array as="points">
                            <mxPoint x="250" y="260"/>
                        </Array>
                    </mxGeometry>
                </mxCell>
                <mxCell id="37" value="turn" style="html=1;verticalAlign=bottom;endArrow=open;dashed=1;endSize=8;" parent="1" source="6" target="5" edge="1">
                    <mxGeometry relative="1" as="geometry">
                        <mxPoint x="430" y="380" as="sourcePoint"/>
                        <mxPoint x="350" y="380" as="targetPoint"/>
                        <Array as="points">
                            <mxPoint x="450" y="360"/>
                        </Array>
                    </mxGeometry>
                </mxCell>
                <mxCell id="19" value="effect" style="html=1;verticalAlign=bottom;endArrow=open;dashed=1;endSize=8;" parent="1" source="8" target="6" edge="1">
                    <mxGeometry relative="1" as="geometry">
                        <mxPoint x="560" y="380" as="sourcePoint"/>
                        <mxPoint x="480" y="380" as="targetPoint"/>
                        <Array as="points">
                            <mxPoint x="550" y="420"/>
                        </Array>
                    </mxGeometry>
                </mxCell>
                <mxCell id="29" value="return" style="html=1;verticalAlign=bottom;endArrow=open;dashed=1;endSize=8;" parent="1" source="6" target="7" edge="1">
                    <mxGeometry relative="1" as="geometry">
                        <mxPoint x="300" y="460" as="sourcePoint"/>
                        <mxPoint x="220" y="460" as="targetPoint"/>
                        <Array as="points">
                            <mxPoint x="410" y="510"/>
                            <mxPoint x="350" y="510"/>
                            <mxPoint x="260" y="510"/>
                        </Array>
                    </mxGeometry>
                </mxCell>
                <mxCell id="28" value="" style="html=1;verticalAlign=bottom;endArrow=block;" parent="1" source="7" target="6" edge="1">
                    <mxGeometry width="80" relative="1" as="geometry">
                        <mxPoint x="220" y="440" as="sourcePoint"/>
                        <mxPoint x="480" y="440" as="targetPoint"/>
                        <Array as="points">
                            <mxPoint x="350" y="490"/>
                        </Array>
                    </mxGeometry>
                </mxCell>
                <mxCell id="40" value="fetch" style="text;html=1;align=center;verticalAlign=middle;resizable=0;points=[];autosize=1;strokeColor=none;" parent="1" vertex="1">
                    <mxGeometry x="330" y="470" width="40" height="20" as="geometry"/>
                </mxCell>
                <mxCell id="41" value="print" style="html=1;verticalAlign=bottom;endArrow=open;dashed=1;endSize=8;" edge="1" parent="1">
                    <mxGeometry relative="1" as="geometry">
                        <mxPoint x="100" y="580" as="sourcePoint"/>
                        <mxPoint x="20" y="580" as="targetPoint"/>
                    </mxGeometry>
                </mxCell>
            </root>
        </mxGraphModel>
    </diagram>
</mxfile>